<mxfile host="app.diagrams.net" modified="2021-07-07T12:58:07.608Z" agent="5.0 (Windows NT 10.0; Win64; x64) AppleWebKit/537.36 (KHTML, like Gecko) Chrome/91.0.4472.124 Safari/537.36" etag="5L0TELWVqDzJyg7rYfuO" version="14.8.0" type="github">
  <diagram id="XI1ci1yUby9uN-j92eNz" name="Page-1">
    <mxGraphModel dx="1422" dy="705" grid="1" gridSize="10" guides="1" tooltips="1" connect="1" arrows="1" fold="1" page="1" pageScale="1" pageWidth="850" pageHeight="1100" math="0" shadow="0">
      <root>
        <mxCell id="0" />
        <mxCell id="1" parent="0" />
        <mxCell id="w9592fUY6xNxscIKQxo7-9" value="" style="rounded=1;whiteSpace=wrap;html=1;fillColor=#78FF85;" vertex="1" parent="1">
          <mxGeometry x="630" y="62" width="200" height="258" as="geometry" />
        </mxCell>
        <mxCell id="w9592fUY6xNxscIKQxo7-8" value="" style="rounded=1;whiteSpace=wrap;html=1;labelBackgroundColor=#78FF85;fillColor=#B5739D;" vertex="1" parent="1">
          <mxGeometry x="10" y="230" width="510" height="590" as="geometry" />
        </mxCell>
        <mxCell id="L8Has-nO9r0oJjwzj3ry-6" style="edgeStyle=orthogonalEdgeStyle;rounded=0;orthogonalLoop=1;jettySize=auto;html=1;entryX=0.5;entryY=1;entryDx=0;entryDy=0;" parent="1" source="L8Has-nO9r0oJjwzj3ry-2" target="L8Has-nO9r0oJjwzj3ry-3" edge="1">
          <mxGeometry relative="1" as="geometry" />
        </mxCell>
        <mxCell id="L8Has-nO9r0oJjwzj3ry-2" value="" style="image;html=1;image=img/lib/clip_art/networking/Wireless_Router_128x128.png" parent="1" vertex="1">
          <mxGeometry x="120" y="440" width="80" height="80" as="geometry" />
        </mxCell>
        <mxCell id="L8Has-nO9r0oJjwzj3ry-3" value="" style="aspect=fixed;perimeter=ellipsePerimeter;html=1;align=center;shadow=0;dashed=0;spacingTop=3;image;image=img/lib/active_directory/internet_cloud.svg;" parent="1" vertex="1">
          <mxGeometry x="20" y="320" width="50" height="31.5" as="geometry" />
        </mxCell>
        <mxCell id="L8Has-nO9r0oJjwzj3ry-15" style="edgeStyle=orthogonalEdgeStyle;rounded=0;orthogonalLoop=1;jettySize=auto;html=1;entryX=0.25;entryY=1;entryDx=0;entryDy=0;" parent="1" source="L8Has-nO9r0oJjwzj3ry-7" target="L8Has-nO9r0oJjwzj3ry-2" edge="1">
          <mxGeometry relative="1" as="geometry" />
        </mxCell>
        <mxCell id="L8Has-nO9r0oJjwzj3ry-7" value="" style="aspect=fixed;html=1;points=[];align=center;image;fontSize=12;image=img/lib/mscae/VM_Linux.svg;" parent="1" vertex="1">
          <mxGeometry x="230" y="647" width="50" height="46" as="geometry" />
        </mxCell>
        <mxCell id="L8Has-nO9r0oJjwzj3ry-16" style="edgeStyle=orthogonalEdgeStyle;rounded=0;orthogonalLoop=1;jettySize=auto;html=1;entryX=0.5;entryY=0;entryDx=0;entryDy=0;" parent="1" source="L8Has-nO9r0oJjwzj3ry-8" target="L8Has-nO9r0oJjwzj3ry-3" edge="1">
          <mxGeometry relative="1" as="geometry" />
        </mxCell>
        <mxCell id="L8Has-nO9r0oJjwzj3ry-8" value="" style="aspect=fixed;html=1;points=[];align=center;image;fontSize=12;image=img/lib/mscae/VirtualMachineWindows.svg;" parent="1" vertex="1">
          <mxGeometry x="750" y="134" width="50" height="46" as="geometry" />
        </mxCell>
        <mxCell id="L8Has-nO9r0oJjwzj3ry-9" value="99.241.131.28" style="text;html=1;strokeColor=none;fillColor=none;align=center;verticalAlign=middle;whiteSpace=wrap;rounded=0;" parent="1" vertex="1">
          <mxGeometry x="60" y="480" width="40" height="20" as="geometry" />
        </mxCell>
        <mxCell id="L8Has-nO9r0oJjwzj3ry-12" value="192.168.0.1" style="text;html=1;strokeColor=none;fillColor=none;align=center;verticalAlign=middle;whiteSpace=wrap;rounded=0;" parent="1" vertex="1">
          <mxGeometry x="220" y="480" width="40" height="20" as="geometry" />
        </mxCell>
        <mxCell id="L8Has-nO9r0oJjwzj3ry-14" value="192.168.0.20" style="text;html=1;strokeColor=none;fillColor=none;align=center;verticalAlign=middle;whiteSpace=wrap;rounded=0;" parent="1" vertex="1">
          <mxGeometry x="170" y="647" width="40" height="20" as="geometry" />
        </mxCell>
        <mxCell id="L8Has-nO9r0oJjwzj3ry-17" value="10.8.0.2" style="text;html=1;strokeColor=none;fillColor=none;align=center;verticalAlign=middle;whiteSpace=wrap;rounded=0;" parent="1" vertex="1">
          <mxGeometry x="755" y="185.75" width="40" height="20" as="geometry" />
        </mxCell>
        <mxCell id="L8Has-nO9r0oJjwzj3ry-19" value="10.8.0.1" style="text;html=1;strokeColor=none;fillColor=none;align=center;verticalAlign=middle;whiteSpace=wrap;rounded=0;" parent="1" vertex="1">
          <mxGeometry x="235" y="693" width="40" height="20" as="geometry" />
        </mxCell>
        <mxCell id="L8Has-nO9r0oJjwzj3ry-23" value="199.101.110.12" style="text;html=1;strokeColor=none;fillColor=none;align=center;verticalAlign=middle;whiteSpace=wrap;rounded=0;" parent="1" vertex="1">
          <mxGeometry x="680" y="134" width="40" height="20" as="geometry" />
        </mxCell>
        <mxCell id="w9592fUY6xNxscIKQxo7-4" style="edgeStyle=orthogonalEdgeStyle;rounded=0;orthogonalLoop=1;jettySize=auto;html=1;entryX=0.6;entryY=0.988;entryDx=0;entryDy=0;entryPerimeter=0;" edge="1" parent="1" source="w9592fUY6xNxscIKQxo7-1" target="L8Has-nO9r0oJjwzj3ry-2">
          <mxGeometry relative="1" as="geometry">
            <mxPoint x="230" y="570" as="targetPoint" />
          </mxGeometry>
        </mxCell>
        <mxCell id="w9592fUY6xNxscIKQxo7-1" value="" style="verticalLabelPosition=bottom;html=1;verticalAlign=top;align=center;strokeColor=none;fillColor=#00BEF2;shape=mxgraph.azure.computer;pointerEvents=1;" vertex="1" parent="1">
          <mxGeometry x="390" y="602" width="50" height="45" as="geometry" />
        </mxCell>
        <mxCell id="w9592fUY6xNxscIKQxo7-2" value="192.168.0.30" style="text;html=1;strokeColor=none;fillColor=none;align=center;verticalAlign=middle;whiteSpace=wrap;rounded=0;" vertex="1" parent="1">
          <mxGeometry x="330" y="602" width="40" height="20" as="geometry" />
        </mxCell>
        <mxCell id="w9592fUY6xNxscIKQxo7-6" style="edgeStyle=orthogonalEdgeStyle;rounded=0;orthogonalLoop=1;jettySize=auto;html=1;entryX=0.85;entryY=0.988;entryDx=0;entryDy=0;entryPerimeter=0;" edge="1" parent="1" source="w9592fUY6xNxscIKQxo7-5" target="L8Has-nO9r0oJjwzj3ry-2">
          <mxGeometry relative="1" as="geometry" />
        </mxCell>
        <mxCell id="w9592fUY6xNxscIKQxo7-5" value="" style="verticalLabelPosition=bottom;html=1;verticalAlign=top;align=center;strokeColor=none;fillColor=#00BEF2;shape=mxgraph.azure.computer;pointerEvents=1;" vertex="1" parent="1">
          <mxGeometry x="390" y="520" width="50" height="45" as="geometry" />
        </mxCell>
        <mxCell id="w9592fUY6xNxscIKQxo7-7" value="192.168.0.31" style="text;html=1;strokeColor=none;fillColor=none;align=center;verticalAlign=middle;whiteSpace=wrap;rounded=0;" vertex="1" parent="1">
          <mxGeometry x="330" y="520" width="40" height="20" as="geometry" />
        </mxCell>
        <mxCell id="w9592fUY6xNxscIKQxo7-14" style="edgeStyle=orthogonalEdgeStyle;rounded=0;orthogonalLoop=1;jettySize=auto;html=1;entryX=0.5;entryY=1;entryDx=0;entryDy=0;fontColor=#FF0080;" edge="1" parent="1" source="w9592fUY6xNxscIKQxo7-13" target="L8Has-nO9r0oJjwzj3ry-17">
          <mxGeometry relative="1" as="geometry" />
        </mxCell>
        <mxCell id="w9592fUY6xNxscIKQxo7-13" value="&lt;font color=&quot;#000000&quot;&gt;app&lt;/font&gt;" style="text;html=1;strokeColor=none;fillColor=none;align=center;verticalAlign=middle;whiteSpace=wrap;rounded=0;labelBackgroundColor=#78FF85;fontColor=#FF0080;" vertex="1" parent="1">
          <mxGeometry x="755" y="270" width="40" height="20" as="geometry" />
        </mxCell>
        <mxCell id="w9592fUY6xNxscIKQxo7-17" style="edgeStyle=orthogonalEdgeStyle;rounded=0;orthogonalLoop=1;jettySize=auto;html=1;entryX=0.5;entryY=1;entryDx=0;entryDy=0;fontColor=#FF0080;" edge="1" parent="1" source="w9592fUY6xNxscIKQxo7-15" target="L8Has-nO9r0oJjwzj3ry-19">
          <mxGeometry relative="1" as="geometry" />
        </mxCell>
        <mxCell id="w9592fUY6xNxscIKQxo7-15" value="&lt;font color=&quot;#000000&quot;&gt;app&lt;/font&gt;" style="text;html=1;strokeColor=none;fillColor=none;align=center;verticalAlign=middle;whiteSpace=wrap;rounded=0;labelBackgroundColor=none;fontColor=#FF0080;" vertex="1" parent="1">
          <mxGeometry x="235" y="770" width="40" height="20" as="geometry" />
        </mxCell>
      </root>
    </mxGraphModel>
  </diagram>
</mxfile>
